# xmcd
#
# Track frame offsets: 
#        150
#        16191
#        36158
#        57158
#        74958
#        87051
#        104767
#        124479
#        140087
#        158416
#        174689
#        193698
#        207227
#
# Disc length: 3133 seconds
#
# Revision: 0
# Processed by: cddbd v1.5.2PL0 Copyright (c) Steve Scherf et al.
# Submitted via: ExactAudioCopyFreeDBPlugin 1.0
#
DISCID=c10c3b0d
DTITLE=Al Basile - B's Expression
DYEAR=2015
DGENRE=Blues
TTITLE0=Whole Lot Of Good Love Good Lovin'
TTITLE1=It Wasn't That Good
TTITLE2=Not Like I Do
TTITLE3=Don't You Ever Get Tired Of Being Right
TTITLE4=I'm Runnin' Late
TTITLE5=Have I Given My Best
TTITLE6=Never Good Enough
TTITLE7=Somethin's Missing
TTITLE8=Answer Me
TTITLE9=I Didn't Come Here To Lie
TTITLE10=Even Jesus Fell
TTITLE11=That Ain't Bad
TTITLE12=You Know - You Don't Know
EXTD=
EXTT0=
EXTT1=
EXTT2=
EXTT3=
EXTT4=
EXTT5=
EXTT6=
EXTT7=
EXTT8=
EXTT9=
EXTT10=
EXTT11=
EXTT12=
PLAYORDER=
